<?xml version="1.0" encoding="UTF-8"?> <svg xmlns="http://www.w3.org/2000/svg" width="873" height="174" viewBox="0 0 873 174" fill="none"><path d="M86.4141 63.9902C86.4141 77.7344 75.2774 88.877 61.5273 88.877C47.7772 88.877 36.6406 77.7344 36.6406 63.9902C36.6406 50.246 47.7772 39.1035 61.5273 39.1035C75.2774 39.1035 86.4141 50.246 86.4141 63.9902Z" fill="#003288"></path><path d="M4.44634 81.5523L29.6494 66.5709C31.5947 65.4093 31.5947 62.565 29.6494 61.4143L4.44634 46.4329C2.47968 45.2605 0 46.7043 0 49.0167V78.9685C0 81.2809 2.47968 82.7139 4.44634 81.5523Z" fill="#FBAC00"></path><path d="M37.225 5.96323C50.0609 0.588704 64.3172 -0.377946 77.7611 3.2142C91.2051 6.8064 103.078 14.7553 111.523 25.8158C119.967 36.8763 124.506 50.4248 124.429 64.3402C124.352 78.2555 119.662 91.7521 111.095 102.718C102.528 113.684 90.5675 121.5 77.0844 124.943C63.6013 128.385 49.3568 127.26 36.5815 121.744C24.4419 116.501 14.2793 107.574 7.51596 96.2522C6.9286 95.269 7.29415 94.0048 8.29621 93.4501L13.7397 90.4369L19.1841 87.4242C20.1862 86.8697 21.4441 87.2354 22.043 88.2116C27.021 96.3257 34.3894 102.725 43.1596 106.512C52.5655 110.574 63.0528 111.402 72.9799 108.868C82.907 106.333 91.7134 100.578 98.0209 92.5042C104.328 84.4304 107.781 74.4928 107.838 64.2474C107.895 54.0021 104.553 44.0275 98.3354 35.8841C92.118 27.7407 83.3763 21.8883 73.4779 19.2435C63.5796 16.5987 53.0838 17.3109 43.6332 21.2679C34.8215 24.9575 27.3818 31.2737 22.3139 39.3319C21.7041 40.3014 20.4421 40.653 19.4462 40.0873L8.62687 33.9408C7.63097 33.375 7.27945 32.1068 7.87773 31.1301C14.7665 19.8839 25.0278 11.0704 37.225 5.96323Z" fill="#003288"></path><path fill-rule="evenodd" clip-rule="evenodd" d="M638.986 126.639C628.502 126.639 620.008 135.143 620.008 145.628C620.008 156.113 628.502 164.618 638.986 164.618C649.471 164.618 657.965 156.124 657.965 145.628C657.965 135.133 649.471 126.639 638.986 126.639ZM638.986 157.541C632.408 157.541 627.073 152.207 627.073 145.628C627.073 139.049 632.408 133.704 638.986 133.704C645.565 133.704 650.9 139.039 650.9 145.628C650.9 152.218 645.565 157.541 638.986 157.541Z" fill="#003288"></path><path fill-rule="evenodd" clip-rule="evenodd" d="M846.844 126.639V164.618H853.888V133.704H872.163V126.639H846.844Z" fill="#003288"></path><path d="M674.713 126.639L662.172 164.618H670.493L680.382 133.693H684.353L694.254 164.618H702.575L690.034 126.639H674.702H674.713Z" fill="#003288"></path><path d="M579.172 164.62L592.502 144.873L579.172 126.651H587.493L597.48 139.917L607.315 126.651H615.636L602.36 144.775L615.636 164.63H607.315L597.328 149.731L587.655 164.63H579.172V164.62Z" fill="#003288"></path><path d="M745.022 157.987V126.651H716.099V132.635C716.099 146.799 714.26 151.04 710.83 157.987H706.805V173.709H713.935V164.63H743.139V173.709H750.183V157.987H745.022ZM737.707 157.998H718.588C721.434 152.133 723.089 148 723.089 138.207V133.371H737.707V158.008V157.998Z" fill="#003288"></path><path d="M759.234 164.618V126.639H766.603V153.516L785.766 126.639H794.346V164.618H787.248V135.955L767.404 164.618H759.234Z" fill="#003288"></path><path d="M803.402 164.618V126.639H810.706V142.058H830.507V126.639H837.8V164.618H830.507V148.961H810.706V164.618H803.402Z" fill="#003288"></path><path fill-rule="evenodd" clip-rule="evenodd" d="M736.15 25.373C757.13 25.373 774.14 42.3825 774.14 63.3629C774.14 84.3433 757.13 101.353 736.15 101.353C715.17 101.353 698.16 84.3433 698.16 63.3629C698.16 42.3825 715.17 25.373 736.15 25.373ZM736.161 38.0327C750.13 38.0327 761.469 49.3615 761.469 63.3304V63.3845C761.469 77.3643 750.141 88.6822 736.161 88.6822C722.181 88.6822 710.863 77.3643 710.863 63.3845V63.3304C710.863 49.3507 722.192 38.0327 736.161 38.0327Z" fill="#003288"></path><path fill-rule="evenodd" clip-rule="evenodd" d="M353.191 25.373V38.0544H378.51V101.374H391.17V38.0544H416.511V25.373H353.18H353.191Z" fill="#003288"></path><path fill-rule="evenodd" clip-rule="evenodd" d="M479.79 38.0435V25.373H429.141V101.364H479.79V88.7039H441.811V69.3248H479.79V57.4334H441.811V38.0544H479.79V38.0435Z" fill="#003288"></path><path fill-rule="evenodd" clip-rule="evenodd" d="M625.02 38.0435V25.373H574.359V101.364H625.02V88.7039H587.019V69.3248H625.02V57.4334H587.019V38.0544H625.02V38.0435Z" fill="#003288"></path><path d="M344.463 63.5051C344.463 68.0929 340.752 71.7934 336.175 71.7934C331.598 71.7934 327.887 68.082 327.887 63.5051C327.887 58.9281 331.598 55.2168 336.175 55.2168C340.752 55.2168 344.463 58.9281 344.463 63.5051Z" fill="#003288"></path><path fill-rule="evenodd" clip-rule="evenodd" d="M698.164 25.373H683.016L659.763 57.0872H650.274V25.373H637.668V101.364H650.274V69.6495H659.763L683.016 101.364H698.164L670.994 63.3629L698.164 25.3839V25.373Z" fill="#003288"></path><path d="M513.315 25.373L488.84 101.364H503.793L523.508 38.0327H530.649L550.375 101.364H565.328L540.863 25.373H513.315Z" fill="#003288"></path><path d="M783.562 25.373V101.364H796.222V38.0327H800.139L816.716 101.364H839.06L855.658 38.0327H859.553V101.364H872.224V25.373H845.195L827.904 92.3611L810.613 25.373H783.562Z" fill="#003288"></path><path d="M271.297 25.4277H289.899V25.4492C303.868 25.4492 315.219 36.7998 315.219 50.7686C315.219 64.7375 303.879 76.0879 289.899 76.0879H271.297V101.363H258.637V25.373H271.297V25.4277ZM271.297 63.4609H289.867C296.879 63.4608 302.57 57.7693 302.57 50.7578C302.57 43.7465 296.878 38.0558 289.867 38.0557H271.297V63.4609Z" fill="#003288"></path><path d="M211.694 25.3516C232.621 25.3516 249.576 42.3071 249.576 63.2334C249.576 84.1596 232.621 101.115 211.694 101.115H199.078C182.556 101.115 168.511 90.5436 163.328 75.8066H177.156C181.517 83.3915 189.697 88.4873 199.067 88.4873H211.479C223.114 88.4872 232.918 80.6093 235.849 69.8994H194.978V56.6875H235.888C233.008 45.9053 223.175 37.9572 211.479 37.957H199.067C189.686 37.957 181.506 43.0644 177.146 50.6494H163.339C168.533 35.9231 182.577 25.3731 199.078 25.373H211.694V25.3516Z" fill="#003288"></path></svg> 